<?xml version="1.0" encoding="utf-8"?>
<!-- Generator: Adobe Illustrator 17.1.0, SVG Export Plug-In . SVG Version: 6.00 Build 0)  -->
<!DOCTYPE svg PUBLIC "-//W3C//DTD SVG 1.1//EN" "http://www.w3.org/Graphics/SVG/1.1/DTD/svg11.dtd">
<svg version="1.1" id="圖層_1" xmlns="http://www.w3.org/2000/svg" xmlns:xlink="http://www.w3.org/1999/xlink" x="0px" y="0px"
	 viewBox="0 0 85 85" enable-background="new 0 0 85 85" xml:space="preserve">
<g>
	<path fill="#E0362A" d="M3,68.4c0,0.2-0.1,0.4-0.2,0.5c-0.1,0.1-0.3,0.2-0.5,0.2H1.5v-6H0v6.7h1.9c0.7,0,1.3-0.3,1.8-0.8
		c0.5-0.5,0.8-1.1,0.8-1.8v-4.2H3V68.4z"/>
	<rect x="8.5" y="64.3" fill="#E0362A" width="1.5" height="6.7"/>
	<path fill="#E0362A" d="M16.9,68.4c0,0.2-0.1,0.4-0.2,0.5c-0.1,0.1-0.3,0.2-0.5,0.2h-0.8v-6h-1.5v6.7h1.9c0.7,0,1.3-0.3,1.8-0.8
		c0.5-0.5,0.8-1.1,0.8-1.8v-4.2h-1.5V68.4z"/>
	<path fill="#E0362A" d="M24.6,64.3h-1.5c-0.4,0-0.8,0.1-1.1,0.4c-0.3,0.3-0.4,0.6-0.4,1.1V71h1.5v-3h1.5v3h1.5v-5.3
		c0-0.4-0.1-0.8-0.4-1.1C25.4,64.4,25,64.3,24.6,64.3z M24.6,67.3h-1.5v-1.5c0-0.2,0.1-0.4,0.2-0.5c0.1-0.1,0.3-0.2,0.5-0.2
		c0.2,0,0.4,0.1,0.5,0.2c0.1,0.1,0.2,0.3,0.2,0.5V67.3z"/>
	<polygon fill="#E0362A" points="34.7,63.1 33.2,63.1 33.2,69.9 37,69.9 37,69.1 34.7,69.1 	"/>
	<path fill="#E0362A" d="M43.2,64.3h-1.5c-0.4,0-0.8,0.1-1.1,0.4c-0.3,0.3-0.4,0.6-0.4,1.1V71h1.5v-3h1.5v3h1.5v-5.3
		c0-0.4-0.1-0.8-0.4-1.1C44,64.4,43.6,64.3,43.2,64.3z M43.2,67.3h-1.5v-1.5c0-0.2,0.1-0.4,0.2-0.5c0.1-0.1,0.3-0.2,0.5-0.2
		c0.2,0,0.4,0.1,0.5,0.2c0.1,0.1,0.2,0.3,0.2,0.5V67.3z"/>
	<path fill="#E0362A" d="M53.5,64.1c0.1-0.1,0.3-0.2,0.5-0.2h0.8c0.4,0,0.7,0.2,0.7,0.7h0.8c-0.1-1-0.6-1.5-1.5-1.5h-1.5
		c-0.4,0-0.8,0.1-1.1,0.4c-0.3,0.3-0.4,0.6-0.4,1.1v3.8c0,0.4,0.1,0.8,0.4,1.1c0.3,0.3,0.6,0.4,1.1,0.4h1.5c0.9,0,1.4-0.5,1.5-1.5
		h-0.8c-0.1,0.5-0.3,0.7-0.7,0.7h-0.8c-0.2,0-0.4-0.1-0.5-0.2c-0.1-0.1-0.2-0.3-0.2-0.5v-3.8C53.3,64.4,53.4,64.2,53.5,64.1z"/>
	<path fill="#E0362A" d="M62.5,64.3H61c-0.4,0-0.8,0.1-1.1,0.4c-0.3,0.3-0.4,0.6-0.4,1.1v3.8c0,0.4,0.1,0.8,0.4,1.1
		c0.3,0.3,0.6,0.4,1.1,0.4h1.5c0.4,0,0.8-0.1,1.1-0.4c0.3-0.3,0.4-0.6,0.4-1.1v-3.8c0-0.4-0.1-0.8-0.4-1.1
		C63.3,64.4,62.9,64.3,62.5,64.3z M62.5,69.5c0,0.2-0.1,0.4-0.2,0.5c-0.1,0.1-0.3,0.2-0.5,0.2c-0.2,0-0.4-0.1-0.5-0.2
		c-0.1-0.1-0.2-0.3-0.2-0.5v-3.8c0-0.2,0.1-0.4,0.2-0.5c0.1-0.1,0.3-0.2,0.5-0.2c0.2,0,0.4,0.1,0.5,0.2c0.1,0.1,0.2,0.3,0.2,0.5
		V69.5z"/>
	<path fill="#E0362A" d="M70.2,63.1h-3v6.7h3c0.4,0,0.8-0.1,1.1-0.4c0.3-0.3,0.4-0.6,0.4-1.1v-3.8c0-0.4-0.1-0.8-0.4-1.1
		C71,63.3,70.6,63.1,70.2,63.1z M70.2,68.4c0,0.2-0.1,0.4-0.2,0.5c-0.1,0.1-0.3,0.2-0.5,0.2h-0.8v-5.2h0.8c0.2,0,0.4,0.1,0.5,0.2
		c0.1,0.1,0.2,0.3,0.2,0.5V68.4z"/>
	<polygon fill="#E0362A" points="74.9,71 78.7,71 78.7,70.3 76.4,70.3 76.4,68 77.9,68 77.9,67.3 76.4,67.3 76.4,65 78.7,65 
		78.7,64.3 74.9,64.3 	"/>
	<rect x="82.6" y="62" fill="#E0362A" width="1.5" height="4.5"/>
	<rect x="82.6" y="67.2" fill="#E0362A" width="1.5" height="1.5"/>
	<path fill="#E0362A" d="M60.3,55.8c5.3-2.1,10.6-4.2,15.8-6.3c0.4-0.2,0.6-0.5,0.6-0.9c0-0.4-0.1-0.7-0.6-0.9
		c-5.3-2.1-10.6-4.2-15.8-6.3c-1-0.4-1.5,1.2-0.5,1.6c4.6,1.9,9.3,3.7,13.9,5.6c-4.6,1.9-9.3,3.7-13.9,5.6
		C58.8,54.6,59.3,56.2,60.3,55.8z"/>
	<path fill="#E0362A" d="M24.3,54.2c-4.6-1.9-9.3-3.7-13.9-5.6c4.6-1.9,9.3-3.7,13.9-5.6c1-0.4,0.6-2.1-0.5-1.6
		c-5.3,2.1-10.6,4.2-15.8,6.3c-0.4,0.2-0.6,0.5-0.6,0.9c0,0.4,0.1,0.7,0.6,0.9c5.3,2.1,10.6,4.2,15.8,6.3
		C24.9,56.2,25.3,54.6,24.3,54.2z"/>
	<path fill="#E0362A" d="M52.8,26c0-1.7-1.4-3-3.1-3c-0.6,0-1.2,0.2-1.7,0.5c-0.3-1.1-1.3-2.2-3-2.3l1.6-7.5
		c0.4-1.7-0.7-3.4-2.4-3.7c-0.2,0-0.4-0.1-0.6-0.1c-1.5,0-2.8,1-3.1,2.5L37.3,27l-3.2-14.8c-0.3-1.4-1.6-2.4-3-2.4
		c-0.2,0-0.5,0-0.8,0.1c-1.7,0.4-2.7,2.1-2.3,3.8l4.2,19.1l0,11c0,0.1,0,1.8,1.5,2.9c0.3,0.2,0.6,0.7,0.8,1.6c0,0.3,0,1.3,0,2.9
		c0,0.8,0,1.7,0,2.7l1.5,0c0-1.6,0-2.8,0-3.7c0-1.6,0-2,0-2.1c-0.2-1.5-0.8-2.3-1.3-2.7c-0.9-0.7-0.9-1.7-0.9-1.7l0-9.5l4-3.5l7,0
		c0.3,0.1,1,0.4,0.9,1.4c-0.1,1.4-1,1.6-1.2,1.7l-4.6-0.2l-1.5,1.2c-0.2,0.1-0.3,0.3-0.3,0.5c0,0.2,0,0.4,0.2,0.6
		c0.1,0.2,0.4,0.3,0.6,0.3c0.2,0,0.3-0.1,0.5-0.2l0.9-0.7c1.3,0.8,2.1,1.8,2.4,3c0.4,1.6,0,3.4-0.5,4.6c-0.1,0.3,0,0.8,0.4,0.9
		c0.1,0.1,0.2,0.1,0.4,0.1c0.4,0,0.6-0.3,0.7-0.4c0.8-2.1,1-4,0.6-5.6c-0.3-1-0.8-2-1.5-2.7l2,0.1l0,0c0.8-0.1,2.4-0.7,2.6-2.9
		c0.6,0.7,1.5,1.2,2.5,1.2c0.6,0,1.1-0.1,1.6-0.4l0,10.6c0,0,0,1.1-0.9,1.7c-0.5,0.4-1.2,1.2-1.4,2.6l0,0c0,0.2,0,0.7,0,3.3l0,2.5
		l1.5,0c0-2,0-5.3,0-5.6c0.1-1,0.5-1.4,0.8-1.6c1.5-1.1,1.5-2.8,1.5-2.9L52.8,26z M33.8,32l-4.2-18.7c-0.1-0.4,0-0.8,0.2-1.1
		c0.2-0.3,0.5-0.6,0.9-0.7c0.1,0,0.2,0,0.4,0c0.7,0,1.3,0.5,1.5,1.2l3.7,17.2L33.8,32z M41.6,29.2l-3.1,0L42,12.6
		c0.1-0.7,0.8-1.2,1.5-1.2c0.1,0,0.2,0,0.3,0c0.8,0.2,1.3,1,1.2,1.8L43.7,19l-1.3,6.2L41.6,29.2z M46.5,28.9c0,0.3-0.1,0.6-0.3,0.9
		c-0.3-0.3-0.7-0.5-1.1-0.6l-0.1,0l-1.7-0.1c0,0,0,0,0,0l0,0c0,0,0-0.1,0-0.2l0-0.1l1.3-6.3c1,0,2,0.9,2,1.6L46.5,28.9z M51.3,30.7
		c0,0.8-0.7,1.5-1.6,1.5c-0.9,0-1.6-0.7-1.6-1.5l0-4.7c0-0.8,0.7-1.5,1.6-1.5c0.9,0,1.6,0.7,1.6,1.5L51.3,30.7z"/>
</g>
</svg>
