<?xml version="1.0" standalone="no"?>
<!DOCTYPE svg PUBLIC "-//W3C//DTD SVG 20010904//EN"
 "http://www.w3.org/TR/2001/REC-SVG-20010904/DTD/svg10.dtd">
<svg version="1.0" xmlns="http://www.w3.org/2000/svg"
 width="560.000000pt" height="560.000000pt" viewBox="0 0 560.000000 560.000000"
 preserveAspectRatio="xMidYMid meet">
<metadata>
Created by potrace 1.14, written by Peter Selinger 2001-2017
</metadata>
<g transform="translate(0.000000,560.000000) scale(0.100000,-0.100000)"
fill="#000000" stroke="none">
<path d="M2630 5595 c-8 -2 -49 -9 -90 -15 -111 -18 -236 -49 -308 -76 -43
-16 -85 -24 -126 -24 -110 0 -216 -43 -300 -121 -34 -30 -51 -38 -96 -44 -302
-35 -576 -241 -731 -547 -22 -43 -43 -78 -49 -78 -5 0 -35 -24 -67 -54 -104
-96 -183 -274 -183 -413 0 -39 -6 -64 -23 -91 -108 -170 -175 -416 -175 -637
0 -146 9 -223 39 -340 14 -54 21 -119 23 -205 3 -104 7 -136 28 -191 33 -88
72 -153 127 -212 25 -27 68 -91 96 -143 95 -178 247 -332 407 -412 118 -59
211 -82 353 -89 114 -6 122 -7 153 -34 18 -16 50 -38 72 -49 22 -11 40 -24 40
-28 0 -4 -18 -24 -40 -46 -47 -45 -86 -123 -96 -188 -6 -48 -6 -48 -80 -83
-177 -85 -388 -260 -514 -425 -196 -259 -290 -548 -290 -897 l0 -153 2000 0
2001 0 -2 157 c-2 293 -61 522 -190 746 -134 230 -378 458 -611 570 -75 37
-76 37 -83 83 -10 71 -48 144 -98 193 l-46 44 38 19 c21 10 56 34 77 52 38 33
42 33 154 39 136 7 162 11 253 44 220 79 402 243 517 465 24 46 65 107 92 137
108 119 149 227 154 407 2 82 10 148 24 205 31 119 35 163 34 349 0 147 -3
177 -28 270 -29 114 -91 267 -137 343 -21 34 -29 60 -29 95 0 75 -27 181 -64
257 -38 76 -117 172 -170 204 -23 15 -43 42 -65 88 -69 143 -215 315 -341 400
-118 79 -262 135 -386 148 -51 6 -67 12 -90 37 -72 74 -201 128 -310 128 -40
0 -82 8 -116 21 -66 26 -271 75 -363 87 -64 9 -349 13 -385 7z"/>
</g>
</svg>
